#N canvas 635 254 623 500 10;
#X declare -lib geps;
#X msg 250 175 \; pd dsp 1;
#X text 248 153 DSP ON;
#X text 328 153 DSP OFF;
#X msg 330 175 \; pd dsp 0;
#X obj 43 45 hsl 128 15 0 127 0 0 empty empty empty -2 -8 0 10 -262144
-1 -1 8400 1;
#X msg 40 86 igain \$1;
#X obj 43 135 hsl 128 15 0 127 0 0 empty empty empty -2 -8 0 10 -262144
-1 -1 8800 1;
#X msg 40 176 xgain \$1;
#X obj 250 127 loadbang;
#X obj 47 343 noise~;
#X obj 40 412 *~ 0.5;
#X obj 40 433 fexpr~ tanh($x1);
#X obj 40 454 dac~;
#X obj 110 364 line~;
#X obj 110 323 + 300;
#X obj 110 239 loadbang;
#X msg 137 260 seed 42;
#X obj 110 281 metro 2000;
#X msg 110 344 \$1 1990;
#X msg 110 260 1;
#X obj 200 364 line~;
#X obj 200 239 loadbang;
#X msg 200 260 1;
#X msg 227 260 seed 23;
#X obj 40 65 / 64;
#X obj 40 155 / 64;
#X obj 200 281 metro 631;
#X obj 200 323 + 200;
#X msg 200 344 \$1 700;
#X obj 47 364 *~ 0.001;
#X text 48 215 primer;
#X text 108 215 lfo ch1;
#X text 198 215 lfo ch2;
#X text 49 25 igain input (internal);
#X text 49 115 xgain input (crossover);
#X text 248 73 Try setting a high value for xgain \, then modulate
igain.;
#X obj 200 302 random 1000;
#X obj 110 302 random 4000;
#X obj 250 98 declare -lib geps;
#X obj 40 391 fbnet~;
#X text 248 43 External implementing feedback networks as building
block for GePS sound modules.;
#X text 248 23 GePS - Gesture-based Performance System;
#X connect 4 0 24 0;
#X connect 5 0 39 0;
#X connect 6 0 25 0;
#X connect 7 0 39 0;
#X connect 8 0 0 0;
#X connect 9 0 29 0;
#X connect 10 0 11 0;
#X connect 11 0 12 0;
#X connect 11 0 12 1;
#X connect 13 0 39 1;
#X connect 14 0 18 0;
#X connect 15 0 16 0;
#X connect 15 0 19 0;
#X connect 16 0 37 0;
#X connect 17 0 37 0;
#X connect 18 0 13 0;
#X connect 19 0 17 0;
#X connect 20 0 39 2;
#X connect 21 0 23 0;
#X connect 21 0 22 0;
#X connect 22 0 26 0;
#X connect 23 0 36 0;
#X connect 24 0 5 0;
#X connect 25 0 7 0;
#X connect 26 0 36 0;
#X connect 27 0 28 0;
#X connect 28 0 20 0;
#X connect 29 0 39 0;
#X connect 36 0 27 0;
#X connect 37 0 14 0;
#X connect 39 0 10 0;
